<?xml version="1.0" standalone="no"?>
<!DOCTYPE svg PUBLIC "-//W3C//DTD SVG 20010904//EN"
 "http://www.w3.org/TR/2001/REC-SVG-20010904/DTD/svg10.dtd">
<svg version="1.0" xmlns="http://www.w3.org/2000/svg"
 width="4329.000000pt" height="4329.000000pt" viewBox="0 0 4329.000000 4329.000000"
 preserveAspectRatio="xMidYMid meet">
<metadata>
Created by potrace 1.14, written by Peter Selinger 2001-2017
</metadata>
<g transform="translate(0.000000,4329.000000) scale(0.100000,-0.100000)"
fill="#000000" stroke="none">
<path d="M22694 42478 c-446 -447 -857 -867 -913 -933 -550 -643 -946 -1374
-1176 -2170 -366 -1268 -284 -2634 232 -3845 288 -675 674 -1253 1193 -1785
102 -104 1611 -1621 3355 -3370 1743 -1749 3335 -3347 3537 -3550 l368 -371
-91 -149 c-500 -824 -1220 -1760 -2133 -2775 -551 -612 -982 -1060 -2496
-2590 -1071 -1083 -1300 -1319 -1845 -1904 -535 -573 -730 -812 -990 -1211
-565 -865 -895 -1782 -1001 -2780 -25 -227 -25 -780 -1 -995 63 -569 196
-1048 418 -1509 93 -193 151 -295 285 -496 164 -248 300 -411 554 -666 286
-287 2020 -1964 2032 -1964 4 0 1548 1593 3430 3540 11070 11452 9677 10008
9846 10210 650 776 1082 1688 1237 2615 51 308 60 414 60 775 0 266 -4 371
-18 485 -95 764 -356 1397 -804 1949 -56 69 -1957 1978 -5457 5481 -2954 2956
-6145 6150 -7091 7098 l-1720 1722 -811 -812z"/>
<path d="M19268 33871 c-1 -5 -561 -584 -1243 -1287 -682 -704 -3184 -3284
-5560 -5734 -2376 -2450 -4763 -4912 -5304 -5470 -541 -558 -1037 -1076 -1102
-1150 -737 -842 -1210 -1862 -1343 -2895 -44 -339 -47 -811 -6 -1115 85 -649
302 -1221 643 -1700 179 -251 107 -177 2953 -3030 853 -855 2862 -2871 4465
-4480 2463 -2473 3673 -3688 6639 -6672 l335 -338 811 808 c527 524 855 858
936 953 329 388 579 768 798 1214 332 675 520 1368 580 2139 15 192 12 647 -5
862 -101 1243 -598 2417 -1419 3349 -105 119 -119 133 -3766 3805 -1740 1752
-3282 3305 -3427 3451 l-263 265 98 161 c560 908 1308 1865 2317 2963 492 535
804 857 2105 2170 1350 1363 1565 1584 2158 2222 328 352 474 523 647 753
1318 1758 1642 3962 831 5640 -177 366 -427 733 -692 1014 -121 128 -2162
2111 -2173 2111 -5 0 -11 -4 -13 -9z"/>
</g>
</svg>
